<svg width="250" height="250" viewBox="0 0 250 250" fill="none" xmlns="http://www.w3.org/2000/svg">
<path d="M125 250C56.0713 250 0 193.921 0 125C0 56.0795 56.0713 0 125 0C193.929 0 250 56.0713 250 125C250 193.929 193.921 250 125 250ZM125 5.90654C59.3346 5.90654 5.90654 59.3346 5.90654 125C5.90654 190.665 59.3265 244.093 125 244.093C190.674 244.093 244.093 190.674 244.093 125C244.093 59.3265 190.665 5.90654 125 5.90654Z" fill="white"/>
<path d="M125 207.822C170.741 207.822 207.822 170.741 207.822 125C207.822 79.2587 170.741 42.178 125 42.178C79.2586 42.178 42.1779 79.2587 42.1779 125C42.1779 170.741 79.2586 207.822 125 207.822Z" fill="white"/>
<path d="M125 200.969C103.691 186.97 82.8547 173.696 76.3445 147.933C71.8411 130.115 73.8481 79.363 74.3539 67.8273H175.45C175.923 79.3793 178.477 130.27 173.46 147.957C165.734 175.173 141.577 190.127 125 200.969Z" fill="#FFCD18"/>
<path d="M73.4728 112.608C73.4728 110.405 73.4728 108.194 73.4728 105.991C73.5136 105.755 73.5544 105.518 73.587 105.282C74.2804 99.4893 76.4995 94.3741 80.5133 90.1155C89.0468 81.0599 103.201 79.2243 113.913 85.7346C118.237 88.3615 121.671 91.8859 124.388 96.12C124.821 96.7889 124.861 96.7889 125.286 96.1281C126.134 94.8146 127.031 93.542 128.051 92.3672C135.181 84.1845 144.017 80.4481 154.859 82.3734C167.259 84.5761 175.842 94.9452 176.242 107.484C176.331 110.389 176.168 113.277 175.834 116.165C174.993 123.54 172.318 130.156 167.733 136.005C163.841 140.974 159.24 145.257 154.525 149.409C144.792 157.975 134.871 166.338 125.481 175.295C124.992 175.769 124.69 175.769 124.192 175.295C115.471 166.998 106.326 159.175 97.2539 151.269C92.2856 146.937 87.3662 142.54 83.1076 137.474C78.3922 131.861 75.2757 125.514 74.1254 118.245C73.8317 116.369 73.693 114.484 73.4728 112.608Z" fill="#E5332A"/>
<path d="M73.4728 112.608C73.4728 110.405 73.4728 108.194 73.4728 105.991C73.5136 105.755 73.5544 105.518 73.587 105.282C74.2804 99.4893 76.4995 94.3741 80.5133 90.1155C89.0468 81.0599 103.201 79.2243 113.913 85.7346C118.237 88.3615 121.671 91.8859 124.388 96.12C124.821 96.7889 124.861 96.7889 125.286 96.1281C126.134 94.8146 127.031 93.542 128.051 92.3672C135.181 84.1845 144.017 80.4481 154.859 82.3734C167.259 84.5761 176.013 96.3239 176.405 108.863C176.405 108.863 176.462 120.668 176.176 125.351C176.176 125.351 176.168 125.808 176.103 126.248C174.586 137.058 166.705 141.072 156.172 153.611C147.109 163.286 135.247 172.13 124.861 175.711C117.282 173.656 101.015 162.993 88.4349 148.43C79.3548 136.976 75.2757 125.506 74.1173 118.229C73.8317 116.369 73.693 114.484 73.4728 112.608Z" fill="#E5332A"/>
<path fill-rule="evenodd" clip-rule="evenodd" d="M175.687 133.419C174.21 171.869 145.281 187.549 125 200.969C145.281 187.557 159.134 142.189 152.811 130.017C152.811 130.017 150.413 148.879 135.026 153.529C138.885 152.363 149.434 130.621 130.262 102.981C133.958 124.821 98.6572 149.483 124.584 175.654C108.953 170.923 98.494 149.842 98.1187 132.457C97.6782 111.882 116.287 107.86 108.814 83.3442C112.485 83.9561 121.378 90.1971 124.396 96.1281C117.707 82.9852 116.817 63.5524 143.307 49.0389C130.327 76.6055 176.764 97.3274 176.127 126.713C176.079 128.386 175.687 133.419 175.687 133.419Z" fill="#F89FDF"/>
<path d="M30.4056 130.76C28.7495 132.334 26.5713 133.109 23.8627 133.101C21.1542 133.085 18.9841 132.269 17.3443 130.662C15.7045 129.055 14.8969 126.942 14.9132 124.323C14.9295 121.68 15.7616 119.567 17.4259 117.992C19.082 116.418 21.2684 115.643 23.9688 115.659C26.6773 115.675 28.8474 116.491 30.4872 118.098C32.127 119.705 32.9347 121.818 32.9183 124.437C32.902 127.072 32.0617 129.185 30.4056 130.76ZM27.999 121.002C26.9873 120.154 25.6412 119.722 23.9443 119.705C22.2556 119.697 20.8932 120.113 19.8734 120.945C18.8536 121.786 18.3396 122.911 18.3315 124.331C18.3233 125.751 18.821 126.876 19.8326 127.733C20.8442 128.581 22.1985 129.014 23.8872 129.022C25.5841 129.03 26.9384 128.614 27.9582 127.782C28.9779 126.942 29.4919 125.816 29.5001 124.396C29.5082 122.993 29.0106 121.859 27.999 121.002Z" fill="white"/>
<path d="M28.309 104.751L27.6645 107.868L33.9952 109.165L33.2039 113.007L16.0227 109.475L17.5809 101.88C18.0051 99.8319 18.8047 98.339 19.9876 97.4008C21.1705 96.4626 22.6064 96.1689 24.2951 96.5197C25.4699 96.7644 26.4244 97.2458 27.1505 97.98C27.8766 98.7142 28.3498 99.6443 28.5537 100.786L36.2795 98.0371L35.3903 102.377L28.309 104.751ZM24.6459 107.248L25.3638 103.764C25.7473 101.896 25.1681 100.803 23.6343 100.485C22.125 100.175 21.1787 100.958 20.7953 102.826L20.0773 106.31L24.6459 107.248Z" fill="white"/>
<path d="M28.2763 77.6987C30.3403 76.8829 32.6083 76.989 35.0721 78.0251C37.4869 79.0367 39.1267 80.5867 39.9997 82.6752C40.8726 84.7637 40.7829 87.0643 39.7223 89.5934L37.0709 95.8915L20.9013 89.0957L23.5527 82.7976C24.6459 80.2196 26.2123 78.5227 28.2763 77.6987ZM36.7119 84.5027C36.1571 83.3524 35.0884 82.4468 33.5057 81.7778C31.9149 81.1089 30.5198 80.9865 29.3124 81.3944C28.105 81.8023 27.1994 82.7323 26.5876 84.1845L25.5107 86.738L35.5534 90.9558L36.6303 88.4023C37.234 86.9501 37.2667 85.653 36.7119 84.5027Z" fill="white"/>
<path d="M43.9075 73.995L48.884 66.4405L51.772 68.3495L44.658 79.1346L30.0222 69.4835L37.0138 58.886L39.9018 60.795L35.0476 68.1537L37.8949 70.0301L41.6068 64.4009L44.3806 66.2284L40.6686 71.8575L43.9075 73.995Z" fill="white"/>
<path d="M53.6647 56.7485L51.462 59.0491L56.1284 63.5116L53.4118 66.3507L40.7502 54.2276L46.1102 48.6229C47.5542 47.1136 49.0308 46.2733 50.5238 46.1102C52.0249 45.947 53.3954 46.461 54.6355 47.6521C55.5003 48.4842 56.055 49.3979 56.2834 50.4095C56.5119 51.413 56.414 52.4573 55.9734 53.5341L63.9766 55.3126L60.9173 58.5106L53.6647 56.7485ZM49.2266 56.9116L51.6822 54.3418C53.0038 52.9631 53.0936 51.7312 51.9596 50.6461C50.8501 49.5856 49.6345 49.7406 48.3129 51.1193L45.8573 53.6891L49.2266 56.9116Z" fill="white"/>
<path d="M71.2293 47.0647C69.0265 46.461 67.2317 44.9925 65.853 42.6592C64.4743 40.3341 64.05 38.0498 64.5885 35.8145C65.1269 33.5791 66.522 31.8007 68.7655 30.4627C71.0416 29.1084 73.2851 28.7413 75.4878 29.345C77.6906 29.9569 79.4854 31.4172 80.8641 33.7505C82.2428 36.0837 82.6671 38.3599 82.1286 40.5952C81.5902 42.8306 80.1951 44.609 77.9516 45.947C75.6755 47.3013 73.432 47.6765 71.2293 47.0647ZM78.3432 39.9752C78.5553 38.6699 78.229 37.2911 77.3642 35.8308C76.4995 34.3786 75.447 33.4241 74.1988 32.9836C72.9506 32.5431 71.7187 32.6817 70.5032 33.4078C69.2876 34.1339 68.5697 35.1455 68.3657 36.4508C68.1536 37.7561 68.4799 39.1349 69.3447 40.587C70.2095 42.0474 71.2619 42.9937 72.5101 43.4343C73.7583 43.8748 74.9902 43.7361 76.2058 43.01C77.4213 42.2921 78.1393 41.2805 78.3432 39.9752Z" fill="white"/>
<path d="M95.0267 22.8675L86.8767 25.8452L88.1575 29.3532L94.3578 27.0853L95.4999 30.2098L89.2997 32.4778L91.69 39.0207L87.9617 40.3831L81.941 23.9117L93.8275 19.5797L95.0267 22.8675Z" fill="white"/>
<path d="M121.002 15.1824L121.378 18.7638L115.504 19.3838L116.964 33.2446L113.016 33.6607L111.555 19.7999L105.681 20.4199L105.306 16.8385L121.002 15.1824Z" fill="white"/>
<path d="M137.523 16.0962L141.48 16.4306L140.003 33.9055L136.046 33.571L136.65 26.4L129.479 25.7963L128.875 32.9673L124.918 32.6328L126.395 15.158L130.352 15.4924L129.781 22.2066L136.952 22.8104L137.523 16.0962Z" fill="white"/>
<path d="M148.528 32.4778L157.241 34.9008L156.311 38.2375L143.862 34.7785L148.553 17.8828L160.782 21.2848L159.852 24.6215L151.359 22.2638L150.445 25.5515L156.939 27.3545L156.05 30.5525L149.556 28.7495L148.528 32.4778Z" fill="white"/>
<path d="M183.959 34.3706C184.481 35.8309 184.31 37.3157 183.437 38.8413C182.548 40.3832 181.341 41.2887 179.823 41.5498C178.306 41.8109 176.641 41.4193 174.83 40.375L171.755 38.5965L168.614 44.0299L165.212 42.0719L173.974 26.8813L180.451 30.6178C182.262 31.6621 183.429 32.9184 183.959 34.3706ZM178.322 38.0499C178.999 37.9602 179.521 37.5768 179.913 36.9159C180.712 35.529 180.207 34.3135 178.395 33.2692L175.72 31.7273L173.321 35.888L175.997 37.4299C176.87 37.9357 177.645 38.1397 178.322 38.0499Z" fill="white"/>
<path d="M199.37 44.7152L202.364 47.3258L190.829 60.5421L187.835 57.9315L192.566 52.5063L187.141 47.7745L182.409 53.1997L179.415 50.5891L190.951 37.3728L193.945 39.9834L189.515 45.0578L194.94 49.7896L199.37 44.7152Z" fill="white"/>
<path d="M195.952 62.9488C196.303 60.6889 197.559 58.7391 199.713 57.1075C201.867 55.4758 204.086 54.7905 206.362 55.0679C208.638 55.3453 210.571 56.5282 212.154 58.6086C213.753 60.7134 214.381 62.8998 214.031 65.1515C213.68 67.4113 212.423 69.3611 210.27 71.0009C208.116 72.6407 205.897 73.3178 203.621 73.0405C201.344 72.7631 199.411 71.5801 197.828 69.4998C196.229 67.3868 195.601 65.2086 195.952 62.9488ZM203.816 69.2061C205.138 69.2632 206.468 68.7819 207.822 67.7621C209.168 66.7342 209.992 65.5839 210.286 64.2949C210.58 63.0059 210.302 61.7984 209.446 60.6726C208.589 59.5468 207.504 58.9512 206.182 58.8941C204.861 58.837 203.531 59.3184 202.177 60.3381C200.831 61.3579 200.007 62.5164 199.713 63.8054C199.419 65.0944 199.697 66.3018 200.553 67.4276C201.402 68.5534 202.495 69.149 203.816 69.2061Z" fill="white"/>
<path d="M209.331 80.6928L213.37 88.7857L210.27 90.3276L204.502 78.7674L220.198 70.9355L225.868 82.2918L222.768 83.8337L218.828 75.9447L215.768 77.4703L218.779 83.4992L215.801 84.984L212.79 78.9551L209.331 80.6928Z" fill="white"/>
<path d="M231.252 99.1466L232.28 102.834L215.385 107.55L214.389 103.993L223.021 93.3869L212.26 96.3892L211.232 92.7016L228.128 87.9862L229.131 91.584L220.484 102.149L231.252 99.1466Z" fill="white"/>
<path d="M233.178 109.516L233.659 113.456L216.25 115.602L215.768 111.661L233.178 109.516Z" fill="white"/>
<path d="M216.56 135.084L216.633 130.605L222.841 126.452L216.772 122.202L216.845 117.682L225.746 124.192L234.377 118.278L234.304 122.797L228.609 126.632L234.181 130.646L234.116 135.026L225.672 128.843L216.56 135.084Z" fill="white"/>
<path d="M27.0852 172.285C27.6237 170.066 29.035 168.23 31.3193 166.77C33.6036 165.318 35.8716 164.82 38.1151 165.285C40.3586 165.75 42.1861 167.088 43.5893 169.291C45.0088 171.526 45.4494 173.753 44.9109 175.973C44.3725 178.192 42.9611 180.027 40.6768 181.487C38.3925 182.94 36.1245 183.437 33.881 182.972C31.6375 182.507 29.8101 181.169 28.4069 178.967C26.9873 176.731 26.5468 174.504 27.0852 172.285ZM34.395 179.179C35.7085 179.35 37.079 178.975 38.5067 178.069C39.9344 177.164 40.8481 176.079 41.2479 174.814C41.6476 173.558 41.4681 172.326 40.7094 171.135C39.9507 169.944 38.9146 169.258 37.6012 169.087C36.2877 168.916 34.9171 169.291 33.4894 170.197C32.0617 171.102 31.148 172.187 30.7401 173.452C30.3404 174.708 30.5198 175.94 31.2786 177.131C32.0536 178.322 33.0897 179.007 34.395 179.179Z" fill="white"/>
<path d="M56.5853 189.091C56.5935 190.641 55.9326 191.987 54.6029 193.129C53.2486 194.288 51.8127 194.736 50.2953 194.484C48.7779 194.222 47.3339 193.301 45.9796 191.71L43.6709 189.009L38.8983 193.088L36.3448 190.111L49.6671 178.706L54.5294 184.384C55.8837 185.975 56.569 187.541 56.5853 189.091ZM50.0424 190.674C50.7114 190.812 51.3314 190.633 51.9188 190.135C53.1344 189.091 53.0609 187.777 51.6985 186.187L49.6916 183.837L46.0449 186.962L48.0518 189.311C48.7126 190.086 49.3816 190.535 50.0424 190.674Z" fill="white"/>
<path d="M64.3519 212.415L59.6854 218.02L56.7077 215.54L59.0735 212.701L50.6706 205.701L48.3047 208.54L45.327 206.06L49.9935 200.455L51.4864 201.695C52.6204 200.716 54.0236 199.223 55.696 197.216L60.6889 191.22L71.6453 200.349L62.7202 211.053L64.3519 212.415ZM59.6446 208.614L66.3833 200.529L61.4231 196.393L58.6738 199.688C57.3522 201.271 55.9163 202.78 54.3663 204.208L59.6446 208.614Z" fill="white"/>
<path d="M71.4822 216.69L79.3793 221.112L77.6906 224.13L66.416 217.816L74.9821 202.511L86.0609 208.711L84.3722 211.73L76.679 207.422L75.0147 210.4L80.8968 213.688L79.2733 216.584L73.3912 213.296L71.4822 216.69Z" fill="white"/>
<path d="M98.6082 213.109L102.377 214.341L96.9195 231.008L93.1504 229.776L95.3939 222.931L88.5492 220.688L86.3057 227.532L82.5366 226.301L87.9944 209.633L91.7635 210.865L89.6668 217.269L96.5116 219.513L98.6082 213.109Z" fill="white"/>
<path d="M137.498 219.26C138.959 220.418 139.742 222.058 139.848 224.179C139.954 226.268 139.326 227.973 137.972 229.286C136.617 230.6 134.716 231.318 132.253 231.44L131.421 231.481L131.543 233.88L127.578 234.075L127.456 231.677L126.583 231.718C124.094 231.84 122.128 231.318 120.684 230.159C119.24 229.001 118.465 227.361 118.359 225.24C118.253 223.151 118.873 221.446 120.211 220.133C121.549 218.819 123.442 218.102 125.906 217.979L126.778 217.938L126.681 216.005L130.645 215.809L130.743 217.743L131.576 217.702C134.064 217.579 136.038 218.102 137.498 219.26ZM127.301 228.454L126.942 221.169L126.207 221.202C124.886 221.267 123.899 221.634 123.238 222.295C122.577 222.956 122.275 223.878 122.332 225.044C122.455 227.475 123.866 228.617 126.566 228.487L127.301 228.454ZM134.969 227.125C135.63 226.464 135.932 225.542 135.875 224.375C135.753 221.944 134.341 220.802 131.641 220.932L130.907 220.965L131.265 228.25L132 228.218C133.321 228.152 134.309 227.785 134.969 227.125Z" fill="white"/>
<path d="M148.398 227.581L157.184 225.419L158.008 228.781L145.461 231.873L141.267 214.838L153.595 211.803L154.418 215.165L145.861 217.269L146.676 220.59L153.219 218.983L154.011 222.213L147.468 223.82L148.398 227.581Z" fill="white"/>
<path d="M165.954 206.598L169.585 204.983L176.715 221.006L173.084 222.621L170.156 216.046L163.58 218.974L166.509 225.55L162.879 227.165L155.748 211.143L159.379 209.527L162.12 215.687L168.695 212.758L165.954 206.598Z" fill="white"/>
<path d="M172.636 202.895L175.989 200.773L185.371 215.597L182.018 217.718L172.636 202.895Z" fill="white"/>
<path d="M199.321 204.714L190.257 202.152L190.005 205.407L193.611 209.609L190.6 212.195L179.187 198.881L182.197 196.295L187.035 201.94L187.524 191.734L191.277 188.52L190.567 198.187L202.903 201.655L199.321 204.714Z" fill="white"/>
<path d="M203.939 196.915C201.671 197.102 199.484 196.335 197.38 194.639C195.275 192.942 194.084 190.951 193.798 188.683C193.513 186.415 194.173 184.286 195.781 182.303C196.964 180.843 198.318 179.88 199.843 179.415C201.369 178.95 202.927 179.024 204.526 179.644L203.18 183.364C201.173 182.573 199.55 182.94 198.31 184.465C197.461 185.518 197.176 186.676 197.461 187.932C197.747 189.197 198.571 190.372 199.933 191.481C201.296 192.591 202.617 193.154 203.906 193.178C205.187 193.211 206.264 192.681 207.137 191.604C208.377 190.07 208.393 188.406 207.202 186.611L210.555 184.514C211.493 185.901 211.893 187.402 211.763 189.001C211.632 190.6 210.971 192.142 209.772 193.627C208.157 195.634 206.207 196.735 203.939 196.915Z" fill="white"/>
<path d="M222.678 172.677L219.04 172.155L215.45 178.926L217.922 181.651L215.98 185.322L203.678 171.078L205.97 166.754L224.669 168.932L222.678 172.677ZM213.011 176.225L215.434 171.657L207.863 170.572L213.011 176.225Z" fill="white"/>
<path d="M29.1205 151.184L25.5781 148.62L23.0143 152.163L26.5567 154.727L29.1205 151.184Z" fill="white"/>
<path d="M227.158 150.335L224.474 146.883L221.021 149.567L223.706 153.019L227.158 150.335Z" fill="white"/>
</svg>
