<svg width="39" height="48" viewBox="0 0 39 48" fill="none" xmlns="http://www.w3.org/2000/svg">
<g clip-path="url(#clip0_33_125)">
<path d="M34.689 48C25.4013 48 16.1137 48 6.82475 48C6.78137 47.9838 6.73798 47.9627 6.69336 47.9527C4.03833 47.4012 2.55959 45.0457 2.58314 43.05C2.59058 42.4263 2.54471 41.8038 2.54967 41.18C2.55215 40.8078 2.41704 40.6322 2.03404 40.6397C1.47378 40.6509 1.0102 40.4119 0.623471 40.0197C0.130146 39.5192 0.00495508 38.8855 0.00371556 38.212C0.00247605 35.3262 0.00247605 32.4403 0.00371556 29.5557C0.00371556 28.4639 -0.00991907 27.372 0.00991312 26.2802C0.0334638 24.9904 0.821793 24.0591 1.9609 24.0193C2.45547 24.0019 2.55711 23.7964 2.55215 23.3607C2.53604 21.8169 2.54595 20.2719 2.54595 18.7282C2.54595 14.3919 2.59306 10.0557 2.53232 5.71941C2.48026 1.84878 5.38939 -0.0585193 8.23283 0.00123954C14.2556 0.126982 20.2821 0.0435687 26.3086 0.0323639C26.7301 0.0311189 27.0337 0.156861 27.3312 0.455655C31.0721 4.22046 34.8216 7.97655 38.5786 11.7252C38.8785 12.024 39.0012 12.334 39.0012 12.756C38.9926 22.7233 38.995 32.6893 38.9938 42.6566C38.9938 43.2517 38.9293 43.8405 38.7422 44.4083C38.0865 46.3952 36.6933 47.5456 34.689 48ZM35.7711 28.3892C35.7413 28.3892 35.7128 28.3892 35.6831 28.3892C35.6831 23.647 35.6831 18.9049 35.6831 14.1616C35.6831 13.4731 35.6694 13.4607 34.9716 13.4619C33.2016 13.4656 31.4303 13.4694 29.6603 13.4768C29.224 13.4781 28.7889 13.4445 28.3687 13.3349C26.6805 12.8942 25.6492 11.521 25.6319 9.66474C25.6157 7.8396 25.6281 6.01447 25.6269 4.18934C25.6269 3.25934 25.6269 3.25934 24.7221 3.25934C19.2236 3.26432 13.7263 3.26805 8.22788 3.27303C8.02583 3.27303 7.8238 3.27179 7.62176 3.2805C6.61651 3.32283 5.87776 4.05239 5.81827 5.06455C5.80711 5.2513 5.80587 5.43929 5.80587 5.62604C5.80587 11.4911 5.80587 17.3574 5.80587 23.2225C5.80587 23.3632 5.80835 23.5039 5.81331 23.6433C5.82074 23.8662 5.93106 23.9907 6.15913 23.9944C6.31407 23.9969 6.47025 23.9981 6.62519 23.9981C14.3759 23.9981 22.1253 23.9981 29.8759 23.9994C31.3745 23.9994 32.2 24.8348 32.205 26.3499C32.2087 27.5824 32.2062 28.8149 32.2062 30.0475C32.2062 32.8399 32.2099 35.6324 32.2038 38.4249C32.2013 39.518 31.5927 40.3409 30.6308 40.5887C30.3098 40.6708 29.9825 40.6459 29.6578 40.6472C22.0162 40.6484 14.3746 40.6484 6.73302 40.6484C6.57809 40.6484 6.42191 40.6547 6.26697 40.6484C5.96081 40.636 5.80215 40.763 5.80835 41.0867C5.8195 41.7577 5.79595 42.4287 5.83066 43.0985C5.8728 43.914 6.50371 44.6149 7.29452 44.7618C7.52135 44.8042 7.7581 44.7992 7.99113 44.7992C16.5016 44.8004 25.0133 44.8004 33.5238 44.8004C33.6949 44.8004 33.8659 44.8004 34.0357 44.7867C34.8042 44.7282 35.4847 44.1543 35.6731 43.4023C35.7525 43.0836 35.7748 42.7587 35.7735 42.4287C35.7698 37.7489 35.7711 33.069 35.7711 28.3892ZM15.2311 28.246C14.5965 28.2908 13.9594 28.2485 13.326 28.3531C13.0459 28.4004 12.9132 28.5 12.9132 28.7963C12.9182 31.3236 12.9169 33.8496 12.9145 36.3769C12.9145 36.6608 13.0285 36.8064 13.3223 36.8276C14.6411 36.9222 15.9575 36.9621 17.2565 36.6433C18.8678 36.2474 19.8917 35.254 20.2809 33.6218C20.4197 33.0391 20.4408 32.4453 20.39 31.8539C20.2586 30.299 19.4926 29.2009 18.0275 28.617C17.1251 28.2584 16.1793 28.2559 15.2311 28.246ZM5.51954 32.5735C5.51954 33.5869 5.51582 34.5991 5.52078 35.6125C5.52822 37.0031 5.37576 36.8002 6.7417 36.8338C7.18049 36.845 7.31436 36.6595 7.3032 36.2499C7.28585 35.6274 7.29452 35.0037 7.30196 34.38C7.30816 33.7625 7.32799 33.7401 7.9242 33.7475C8.45471 33.755 8.9753 33.7114 9.48846 33.567C10.868 33.1798 11.5882 32.1926 11.5473 30.7285C11.5126 29.4959 10.7094 28.6145 9.33228 28.3531C8.27126 28.1514 7.20032 28.2672 6.13186 28.3145C5.66457 28.3344 5.49847 28.5448 5.50963 29.0216C5.53938 30.2043 5.51954 31.3896 5.51954 32.5735ZM21.8377 32.5561C21.8377 33.5384 21.829 34.5219 21.8402 35.5042C21.8563 37.0417 21.6233 36.799 23.1838 36.8313C23.5569 36.8388 23.671 36.6795 23.666 36.3271C23.6524 35.4855 23.6697 34.6427 23.661 33.8011C23.6573 33.4824 23.7813 33.3516 24.1011 33.3591C24.6601 33.3728 25.2191 33.3616 25.7781 33.3616C26.766 33.3616 26.7536 33.3616 26.7487 32.3656C26.7474 31.9884 26.6272 31.8278 26.2367 31.8402C25.5538 31.8614 24.8696 31.8253 24.1878 31.8527C23.7701 31.8689 23.6313 31.7033 23.6586 31.3049C23.6809 30.9787 23.6871 30.6475 23.6573 30.3226C23.6164 29.8781 23.8234 29.7487 24.2275 29.7561C24.9724 29.7698 25.7186 29.7537 26.4636 29.7574C26.7896 29.7586 26.9606 29.6229 26.947 29.2831C26.942 29.1424 26.9358 29.0017 26.9507 28.8623C26.999 28.4053 26.7908 28.2696 26.352 28.2771C25.0481 28.2995 23.7428 28.2833 22.4389 28.2858C21.8774 28.2871 21.8439 28.3207 21.8427 28.9083C21.8352 30.1234 21.8377 31.3398 21.8377 32.5561Z" fill="#1F418C"/>
<path d="M14.7489 32.5424C14.7489 31.7779 14.7651 31.0135 14.7427 30.2504C14.7291 29.7798 14.9299 29.5943 15.3799 29.6216C15.6897 29.6403 16.0058 29.6104 16.3082 29.664C17.9667 29.959 18.4749 31.1268 18.4526 32.5249C18.4464 32.8959 18.403 33.2694 18.2939 33.6317C17.9072 34.9252 16.4012 35.778 15.065 35.468C14.7725 35.3996 14.7564 35.1929 14.7551 34.9725C14.7489 34.1621 14.7527 33.3516 14.7527 32.5399C14.7502 32.5424 14.7502 32.5424 14.7489 32.5424Z" fill="#1F418C"/>
<path d="M7.29947 30.9688C7.29947 30.9065 7.28708 30.8418 7.30195 30.782C7.3912 30.3948 7.04661 29.8296 7.61679 29.6479C8.41132 29.3939 9.27278 29.7051 9.57646 30.2479C9.87518 30.7795 9.7785 31.5215 9.3236 31.9237C8.8216 32.3681 8.21795 32.4428 7.57713 32.327C7.35401 32.286 7.31683 32.1278 7.31311 31.9498C7.30567 31.6224 7.31063 31.2962 7.31063 30.9688C7.30691 30.9688 7.30319 30.9688 7.29947 30.9688Z" fill="#1F418C"/>
</g>
<defs>
<clipPath id="clip0_33_125">
<rect width="39" height="48" fill="white"/>
</clipPath>
</defs>
</svg>
